<?xml version="1.0"?>
<svg xmlns="http://www.w3.org/2000/svg" id="Capa_1" enable-background="new 0 0 512 512" height="512px" viewBox="0 0 512 512" width="512px" class=""><g><g><path d="m376.313 256c0-39.439-19.599-76.036-52.428-97.896l-40.821-27.181 35.955-23.941c35.876-23.888 57.294-63.881 57.294-106.982h-30c0 11.85-2.123 23.389-6.1 34.167h-168.425c-3.978-10.778-6.1-22.317-6.1-34.167h-30c0 43.101 21.418 83.094 57.293 106.982l35.955 23.941-40.821 27.181c-32.829 21.859-52.428 58.456-52.428 97.896s19.599 76.036 52.428 97.896l40.821 27.181-35.955 23.941c-35.875 23.889-57.293 63.882-57.293 106.982h30c0-11.85 2.123-23.389 6.1-34.167h168.424c3.978 10.778 6.1 22.317 6.1 34.167h30c0-43.101-21.418-83.094-57.294-106.982l-35.955-23.941 40.821-27.181c32.83-21.86 52.429-58.457 52.429-97.896zm-210.626 0c0-7.368.919-14.603 2.681-21.565h175.263c1.762 6.962 2.681 14.197 2.681 21.565s-.919 14.603-2.681 21.565h-175.262c-1.762-6.962-2.682-14.197-2.682-21.565zm43.921-173.988c-7.615-5.071-14.377-11.092-20.179-17.845h133.143c-5.803 6.753-12.564 12.774-20.18 17.845l-46.392 30.89zm-4.866 101.063 51.258-34.131 51.258 34.131c8.773 5.841 16.269 13.101 22.286 21.359h-147.088c6.017-8.257 13.513-15.517 22.286-21.359zm97.65 246.913c7.616 5.071 14.377 11.092 20.18 17.845h-133.143c5.803-6.753 12.564-12.774 20.179-17.845l46.392-30.89zm4.866-101.063-51.258 34.131-51.258-34.131c-8.773-5.841-16.269-13.101-22.286-21.359h147.088c-6.017 8.257-13.513 15.517-22.286 21.359z" data-original="#FFFFFF" class="active-path" data-old_color="#000000" fill="#FFFFFF"/></g></g> </svg>
